<?xml version="1.0" encoding="UTF-8" standalone="no"?>
<svg
   xmlns:dc="http://purl.org/dc/elements/1.1/"
   xmlns:cc="http://creativecommons.org/ns#"
   xmlns:rdf="http://www.w3.org/1999/02/22-rdf-syntax-ns#"
   xmlns:svg="http://www.w3.org/2000/svg"
   xmlns="http://www.w3.org/2000/svg"
   xmlns:xlink="http://www.w3.org/1999/xlink"
   xmlns:sodipodi="http://sodipodi.sourceforge.net/DTD/sodipodi-0.dtd"
   xmlns:inkscape="http://www.inkscape.org/namespaces/inkscape"
   xml:space="preserve"
   style="enable-background:new 0 0 144 144;"
   viewBox="19 19 106 106"
   height="144px"
   width="144px"
   y="0px"
   x="0px"
   id="Layer_1"
   version="1.1"
   sodipodi:docname="Docker_Rust.svg"
   inkscape:version="1.0 (4035a4fb49, 2020-05-01)"
   inkscape:export-filename="/home/smueller/src/Docker/rust-crosspile/resources/Docker_Rust.png"
   inkscape:export-xdpi="119.8798"
   inkscape:export-ydpi="119.8798"><metadata
     id="metadata939"><rdf:RDF><cc:Work
         rdf:about=""><dc:format>image/svg+xml</dc:format><dc:type
           rdf:resource="http://purl.org/dc/dcmitype/StillImage" /><dc:title /></cc:Work></rdf:RDF></metadata><defs
     id="defs937"><clipPath
       id="clipPath8"><path
         id="path10"
         d="M 76,2 V 48 H 54 V 71 H 35.580737 c -0.07818,0.665694 -0.141485,1.332869 -0.205737,2 -1.151162,12.530963 1.036422,24.087546 6.0625,33.96875 L 43.125,110 c 1.011403,1.81678 2.191241,3.52297 3.4375,5.1875 1.244725,1.66248 1.685716,2.58262 2.46875,3.6875 C 62.319911,133.81083 82.129473,141 105,141 155.64836,141 198.63299,118.56201 217.65625,68.15625 231.15302,69.54122 244.09968,66.080358 250,54.5625 240.60137,49.138835 228.52163,50.877226 221.5625,54.375 L 240,2 168,48 H 145 V 2 Z" /></clipPath><clipPath
       id="clipPath1564"><path
         id="path1562"
         d="M 76,2 V 48 H 54 V 71 H 35.580737 c -0.07818,0.665694 -0.141485,1.332869 -0.205737,2 -1.151162,12.530963 1.036422,24.087546 6.0625,33.96875 L 43.125,110 c 1.011403,1.81678 2.191241,3.52297 3.4375,5.1875 1.244725,1.66248 1.685716,2.58262 2.46875,3.6875 C 62.319911,133.81083 82.129473,141 105,141 155.64836,141 198.63299,118.56201 217.65625,68.15625 231.15302,69.54122 244.09968,66.080358 250,54.5625 240.60137,49.138835 228.52163,50.877226 221.5625,54.375 L 240,2 168,48 H 145 V 2 Z" /></clipPath><clipPath
       id="clipPath1568"><path
         id="path1566"
         d="M 76,2 V 48 H 54 V 71 H 35.580737 c -0.07818,0.665694 -0.141485,1.332869 -0.205737,2 -1.151162,12.530963 1.036422,24.087546 6.0625,33.96875 L 43.125,110 c 1.011403,1.81678 2.191241,3.52297 3.4375,5.1875 1.244725,1.66248 1.685716,2.58262 2.46875,3.6875 C 62.319911,133.81083 82.129473,141 105,141 155.64836,141 198.63299,118.56201 217.65625,68.15625 231.15302,69.54122 244.09968,66.080358 250,54.5625 240.60137,49.138835 228.52163,50.877226 221.5625,54.375 L 240,2 168,48 H 145 V 2 Z" /></clipPath><clipPath
       id="clipPath1572"><path
         id="path1570"
         d="M 76,2 V 48 H 54 V 71 H 35.580737 c -0.07818,0.665694 -0.141485,1.332869 -0.205737,2 -1.151162,12.530963 1.036422,24.087546 6.0625,33.96875 L 43.125,110 c 1.011403,1.81678 2.191241,3.52297 3.4375,5.1875 1.244725,1.66248 1.685716,2.58262 2.46875,3.6875 C 62.319911,133.81083 82.129473,141 105,141 155.64836,141 198.63299,118.56201 217.65625,68.15625 231.15302,69.54122 244.09968,66.080358 250,54.5625 240.60137,49.138835 228.52163,50.877226 221.5625,54.375 L 240,2 168,48 H 145 V 2 Z" /></clipPath><clipPath
       id="clipPath1576"><path
         id="path1574"
         d="M 76,2 V 48 H 54 V 71 H 35.580737 c -0.07818,0.665694 -0.141485,1.332869 -0.205737,2 -1.151162,12.530963 1.036422,24.087546 6.0625,33.96875 L 43.125,110 c 1.011403,1.81678 2.191241,3.52297 3.4375,5.1875 1.244725,1.66248 1.685716,2.58262 2.46875,3.6875 C 62.319911,133.81083 82.129473,141 105,141 155.64836,141 198.63299,118.56201 217.65625,68.15625 231.15302,69.54122 244.09968,66.080358 250,54.5625 240.60137,49.138835 228.52163,50.877226 221.5625,54.375 L 240,2 168,48 H 145 V 2 Z" /></clipPath><clipPath
       id="clipPath8-7"><path
         d="M 76,2 V 48 H 54 V 71 H 35.580737 c -0.07818,0.665694 -0.141485,1.332869 -0.205737,2 -1.151162,12.530963 1.036422,24.087546 6.0625,33.96875 L 43.125,110 c 1.011403,1.81678 2.191241,3.52297 3.4375,5.1875 1.244725,1.66248 1.685716,2.58262 2.46875,3.6875 C 62.319911,133.81083 82.129473,141 105,141 155.64836,141 198.63299,118.56201 217.65625,68.15625 231.15302,69.54122 244.09968,66.080358 250,54.5625 240.60137,49.138835 228.52163,50.877226 221.5625,54.375 L 240,2 168,48 H 145 V 2 Z"
         id="path10-5" /></clipPath><clipPath
       id="clipPath1679"><path
         d="M 76,2 V 48 H 54 V 71 H 35.580737 c -0.07818,0.665694 -0.141485,1.332869 -0.205737,2 -1.151162,12.530963 1.036422,24.087546 6.0625,33.96875 L 43.125,110 c 1.011403,1.81678 2.191241,3.52297 3.4375,5.1875 1.244725,1.66248 1.685716,2.58262 2.46875,3.6875 C 62.319911,133.81083 82.129473,141 105,141 155.64836,141 198.63299,118.56201 217.65625,68.15625 231.15302,69.54122 244.09968,66.080358 250,54.5625 240.60137,49.138835 228.52163,50.877226 221.5625,54.375 L 240,2 168,48 H 145 V 2 Z"
         id="path1677" /></clipPath><clipPath
       id="clipPath1683"><path
         d="M 76,2 V 48 H 54 V 71 H 35.580737 c -0.07818,0.665694 -0.141485,1.332869 -0.205737,2 -1.151162,12.530963 1.036422,24.087546 6.0625,33.96875 L 43.125,110 c 1.011403,1.81678 2.191241,3.52297 3.4375,5.1875 1.244725,1.66248 1.685716,2.58262 2.46875,3.6875 C 62.319911,133.81083 82.129473,141 105,141 155.64836,141 198.63299,118.56201 217.65625,68.15625 231.15302,69.54122 244.09968,66.080358 250,54.5625 240.60137,49.138835 228.52163,50.877226 221.5625,54.375 L 240,2 168,48 H 145 V 2 Z"
         id="path1681" /></clipPath><clipPath
       id="clipPath1687"><path
         d="M 76,2 V 48 H 54 V 71 H 35.580737 c -0.07818,0.665694 -0.141485,1.332869 -0.205737,2 -1.151162,12.530963 1.036422,24.087546 6.0625,33.96875 L 43.125,110 c 1.011403,1.81678 2.191241,3.52297 3.4375,5.1875 1.244725,1.66248 1.685716,2.58262 2.46875,3.6875 C 62.319911,133.81083 82.129473,141 105,141 155.64836,141 198.63299,118.56201 217.65625,68.15625 231.15302,69.54122 244.09968,66.080358 250,54.5625 240.60137,49.138835 228.52163,50.877226 221.5625,54.375 L 240,2 168,48 H 145 V 2 Z"
         id="path1685" /></clipPath><clipPath
       id="clipPath1691"><path
         d="M 76,2 V 48 H 54 V 71 H 35.580737 c -0.07818,0.665694 -0.141485,1.332869 -0.205737,2 -1.151162,12.530963 1.036422,24.087546 6.0625,33.96875 L 43.125,110 c 1.011403,1.81678 2.191241,3.52297 3.4375,5.1875 1.244725,1.66248 1.685716,2.58262 2.46875,3.6875 C 62.319911,133.81083 82.129473,141 105,141 155.64836,141 198.63299,118.56201 217.65625,68.15625 231.15302,69.54122 244.09968,66.080358 250,54.5625 240.60137,49.138835 228.52163,50.877226 221.5625,54.375 L 240,2 168,48 H 145 V 2 Z"
         id="path1689" /></clipPath></defs><sodipodi:namedview
     inkscape:document-rotation="0"
     pagecolor="#ffffff"
     bordercolor="#666666"
     borderopacity="1"
     objecttolerance="10"
     gridtolerance="10"
     guidetolerance="10"
     inkscape:pageopacity="0"
     inkscape:pageshadow="2"
     inkscape:window-width="1920"
     inkscape:window-height="1016"
     id="namedview935"
     showgrid="false"
     inkscape:zoom="1.9813721"
     inkscape:cx="107.91968"
     inkscape:cy="77.99684"
     inkscape:window-x="0"
     inkscape:window-y="28"
     inkscape:window-maximized="1"
     inkscape:current-layer="layer1" /><g
     inkscape:groupmode="layer"
     id="layer1"
     inkscape:label="Rust"
     style="display:inline;opacity:0.20026042"><path
       d="m 124.24354,70.927531 -4.42972,-2.742111 c -0.0373,-0.431479 -0.0796,-0.86195 -0.12601,-1.290405 l 3.80669,-3.550629 c 0.38712,-0.36091 0.56052,-0.895219 0.45567,-1.412389 -0.10182,-0.519186 -0.46574,-0.946633 -0.96074,-1.13112 l -4.86624,-1.819673 c -0.12197,-0.421398 -0.25002,-0.839771 -0.38107,-1.256128 l 3.03547,-4.215995 c 0.30951,-0.428455 0.37301,-0.98595 0.17139,-1.474892 -0.20162,-0.486927 -0.64218,-0.835739 -1.16338,-0.92143 l -5.13138,-0.834731 c -0.1996,-0.389137 -0.40728,-0.772226 -0.61698,-1.152291 l 2.15639,-4.733165 c 0.22078,-0.481885 0.17542,-1.042406 -0.11896,-1.479934 -0.29336,-0.439544 -0.79037,-0.696617 -1.32065,-0.676454 l -5.20798,0.181463 c -0.26918,-0.336714 -0.54339,-0.670406 -0.82264,-0.998046 l 1.19666,-5.072906 c 0.12097,-0.515153 -0.0313,-1.054502 -0.40629,-1.428518 -0.372,-0.373008 -0.91236,-0.527251 -1.42751,-0.406276 l -5.07189,1.195641 c -0.32866,-0.278243 -0.66234,-0.553462 -1.00007,-0.822632 l 0.18247,-5.207995 c 0.0202,-0.527251 -0.23691,-1.028291 -0.67645,-1.320647 -0.44056,-0.294375 -0.99806,-0.338733 -1.47893,-0.119969 l -4.732159,2.157396 C 94.92715,30.184004 94.544061,29.97633 94.156939,29.775712 l -0.836747,-5.132384 c -0.08468,-0.520194 -0.433495,-0.961755 -0.921429,-1.16338 -0.486926,-0.202634 -1.04543,-0.137106 -1.473885,0.171382 l -4.219019,3.035475 C 86.29051,26.554741 85.873145,26.427716 85.451747,26.306741 l -1.819672,-4.867246 c -0.184488,-0.495999 -0.611934,-0.859934 -1.131121,-0.962763 -0.518178,-0.101821 -1.051478,0.07057 -1.41138,0.455674 l -3.55063,3.809719 c -0.428454,-0.04738 -0.859934,-0.09073 -1.290405,-0.126016 l -2.74211,-4.430726 c -0.277235,-0.448618 -0.768194,-0.72182 -1.296454,-0.72182 -0.528259,0 -1.019218,0.273202 -1.295445,0.72182 l -2.74211,4.430726 c -0.431479,0.03528 -0.862959,0.07863 -1.291413,0.126016 l -3.551638,-3.809719 c -0.359902,-0.385105 -0.89421,-0.557495 -1.41138,-0.455674 -0.519187,0.103837 -0.946633,0.466764 -1.131121,0.962763 l -1.819672,4.867246 c -0.421398,0.120975 -0.838764,0.249008 -1.255121,0.380064 L 53.494064,23.65133 c -0.428454,-0.309496 -0.986958,-0.375024 -1.474892,-0.171382 -0.486926,0.201625 -0.836747,0.643186 -0.92143,1.16338 l -0.836747,5.132384 c -0.387121,0.200618 -0.77021,0.407285 -1.152291,0.617983 l -4.732156,-2.157396 c -0.480878,-0.219772 -1.041397,-0.174406 -1.478925,0.119969 -0.439545,0.292356 -0.696617,0.793396 -0.676455,1.320647 l 0.181463,5.207995 c -0.336715,0.26917 -0.670405,0.544389 -1.000063,0.822632 l -5.071896,-1.195641 c -0.515154,-0.119966 -1.055511,0.03327 -1.428519,0.406276 -0.375024,0.374016 -0.527251,0.913365 -0.406276,1.428518 l 1.194633,5.072906 c -0.277236,0.32865 -0.551447,0.661332 -0.820617,0.998046 L 29.6619,42.236184 c -0.525235,-0.01512 -1.027284,0.23691 -1.320649,0.676454 -0.294374,0.437528 -0.338731,0.998049 -0.119967,1.479934 l 2.157395,4.733165 c -0.209691,0.380065 -0.417365,0.763154 -0.617983,1.152291 l -5.131375,0.834731 c -0.521203,0.08468 -0.960747,0.433495 -1.163381,0.92143 -0.201626,0.488942 -0.136097,1.046437 0.171382,1.474892 l 3.035476,4.215995 c -0.132065,0.416357 -0.260097,0.83473 -0.381073,1.256128 l -4.867246,1.819673 c -0.493983,0.184487 -0.857917,0.611934 -0.960746,1.13112 -0.10283,0.518178 0.06956,1.051479 0.455674,1.412389 l 3.807702,3.550629 c -0.04738,0.428455 -0.08972,0.859934 -0.126016,1.290405 l -4.429718,2.742111 c -0.448617,0.277236 -0.72182,0.767185 -0.72182,1.296454 0,0.529267 0.273203,1.019218 0.72182,1.295445 l 4.429718,2.74211 c 0.03629,0.431479 0.07863,0.861951 0.126016,1.290405 l -3.807702,3.551638 c -0.386114,0.359902 -0.558504,0.894211 -0.455674,1.411381 0.102829,0.519185 0.466763,0.945625 0.960746,1.13112 l 4.867246,1.819673 c 0.120976,0.421398 0.249008,0.83977 0.381073,1.256128 l -3.035476,4.217003 c -0.308487,0.429463 -0.374016,0.986958 -0.171382,1.473884 0.202634,0.488943 0.643186,0.837755 1.164389,0.92143 l 5.130367,0.834732 c 0.200618,0.389139 0.406276,0.772223 0.617983,1.154305 l -2.157395,4.731161 c -0.219772,0.48087 -0.174407,1.04037 0.119967,1.47992 0.294374,0.44055 0.795414,0.69762 1.320649,0.67645 l 5.205977,-0.18247 c 0.271186,0.33874 0.544389,0.67041 0.822633,1.00008 l -1.194633,5.0739 c -0.120975,0.51414 0.03125,1.05148 0.406276,1.42549 0.372,0.37603 0.913365,0.52626 1.428519,0.40527 l 5.071896,-1.19462 c 0.329658,0.28026 0.663348,0.55244 1.000063,0.8206 l -0.181463,5.20901 c -0.02016,0.52725 0.23691,1.02728 0.676455,1.32165 0.437528,0.29337 0.998047,0.33773 1.478925,0.11795 l 4.732156,-2.15638 c 0.381073,0.2117 0.764162,0.41737 1.152291,0.61799 l 0.836747,5.12936 c 0.08468,0.5222 0.433496,0.96376 0.92143,1.16438 0.486926,0.20263 1.046438,0.1371 1.474892,-0.17038 l 4.215995,-3.03748 c 0.416357,0.13206 0.834731,0.26111 1.256129,0.38207 l 1.819672,4.86523 c 0.184488,0.49398 0.611934,0.85994 1.13112,0.96075 0.518179,0.10484 1.051479,-0.0686 1.411381,-0.45568 l 3.551638,-3.8077 c 0.428454,0.0494 0.859933,0.0907 1.291413,0.12904 l 2.74211,4.42972 c 0.276227,0.4466 0.767186,0.72182 1.295445,0.72182 0.52826,0 1.019219,-0.27421 1.296454,-0.72182 l 2.74211,-4.42972 c 0.431479,-0.0383 0.86195,-0.0796 1.290405,-0.12904 l 3.55063,3.8077 c 0.359902,0.38713 0.89421,0.56052 1.41138,0.45568 0.519186,-0.10182 0.946633,-0.46677 1.131121,-0.96075 l 1.819672,-4.86523 c 0.421398,-0.12096 0.839771,-0.25001 1.256129,-0.38207 l 4.217002,3.03748 c 0.428455,0.30748 0.986958,0.37301 1.473885,0.17038 0.487934,-0.20062 0.836746,-0.64318 0.921429,-1.16438 l 0.836747,-5.12936 c 0.387122,-0.20062 0.770211,-0.40931 1.152291,-0.61799 l 4.732158,2.15638 c 0.48088,0.21978 1.04039,0.17542 1.47893,-0.11795 0.43955,-0.29437 0.69561,-0.79339 0.67645,-1.32165 l -0.18146,-5.20901 c 0.33672,-0.26917 0.67041,-0.54034 0.99907,-0.8206 l 5.07188,1.19462 c 0.51516,0.12099 1.05551,-0.0292 1.42752,-0.40527 0.37502,-0.37401 0.52725,-0.91135 0.40627,-1.42549 l -1.19462,-5.0739 c 0.27823,-0.32967 0.55244,-0.66134 0.8206,-1.00008 l 5.208,0.18247 c 0.52523,0.0212 1.02728,-0.2359 1.32064,-0.67645 0.29438,-0.43955 0.33974,-0.99905 0.11896,-1.47992 l -2.15638,-4.731161 c 0.2107,-0.382082 0.41736,-0.765166 0.61697,-1.154305 l 5.13139,-0.834732 c 0.5222,-0.08367 0.96175,-0.432487 1.16337,-0.92143 0.20162,-0.486926 0.13811,-1.044421 -0.17138,-1.473884 l -3.03547,-4.217003 c 0.13105,-0.416358 0.25908,-0.83473 0.38107,-1.256128 l 4.86623,-1.819673 c 0.49499,-0.185495 0.85993,-0.611935 0.96075,-1.13112 0.10484,-0.518179 -0.0686,-1.051479 -0.45568,-1.411381 l -3.80669,-3.551638 c 0.0464,-0.428454 0.0887,-0.859933 0.12601,-1.290405 l 4.42972,-2.74211 c 0.44862,-0.276227 0.72182,-0.767185 0.72182,-1.295445 0,-0.52826 -0.27219,-1.019218 -0.72081,-1.296454 z M 94.595475,107.67483 c -1.69164,-0.36493 -2.767313,-2.03239 -2.404387,-3.72907 0.361918,-1.69466 2.028355,-2.77336 3.718987,-2.40842 1.69164,0.36193 2.76932,2.0324 2.406404,3.72605 -0.362927,1.69365 -2.030372,2.77337 -3.721004,2.41144 z M 93.090339,97.49475 c -1.543445,-0.33067 -3.061687,0.651248 -3.392353,2.197721 l -1.572681,7.339169 c -4.853132,2.20277 -10.242589,3.42663 -15.918354,3.42663 -5.805814,0 -11.312213,-1.28435 -16.252044,-3.58087 l -1.571673,-7.339173 c -0.330666,-1.544456 -1.848908,-2.528384 -3.391345,-2.196712 l -6.479244,1.39122 C 43.309947,97.49475 42.190924,96.176114 41.162633,94.783892 h 31.526204 c 0.356877,0 0.594796,-0.06456 0.594796,-0.389139 v -11.15192 c 0,-0.324618 -0.237919,-0.389139 -0.594796,-0.389139 h -9.220346 v -7.068999 h 9.97241 c 0.91034,0 4.867246,0.260097 6.132447,5.317879 0.396195,1.555543 1.26621,6.615343 1.861006,8.235405 0.59278,1.816649 3.00624,5.445913 5.577977,5.445913 h 15.709679 c 0.17845,0 0.36897,-0.02018 0.56959,-0.05647 -1.08979,1.480947 -2.28543,2.882244 -3.572814,4.191804 z M 49.486752,107.5216 c -1.69164,0.36494 -3.357068,-0.71375 -3.721003,-2.40842 -0.361918,-1.69768 0.713755,-3.36413 2.405395,-3.72907 1.69164,-0.36192 3.358077,0.71678 3.721004,2.41145 0.361918,1.69365 -0.714764,3.36311 -2.405396,3.72604 z M 37.527321,59.025562 c 0.701657,1.58377 -0.0121,3.439735 -1.593852,4.140385 -1.581754,0.702666 -3.432679,-0.0121 -4.134336,-1.596876 -0.701658,-1.584779 0.0121,-3.437719 1.593851,-4.140385 1.582763,-0.701658 3.432679,0.0121 4.134337,1.596876 z m -3.675638,8.713257 6.749422,-2.999183 c 1.441624,-0.640162 2.092876,-2.329786 1.452714,-3.774434 l -1.39021,-3.143346 h 5.467083 V 82.464557 H 35.100755 c -0.956715,-3.363118 -1.469852,-6.91274 -1.469852,-10.581319 0,-1.400292 0.07561,-2.784453 0.22078,-4.144419 z m 29.618824,-2.393298 v -7.263568 h 13.018975 c 0.672422,0 4.748287,0.777268 4.748287,3.824841 0,2.530403 -3.126208,3.437719 -5.696936,3.437719 H 63.470507 Z m 47.313503,6.537717 c 0,0.963771 -0.0353,1.917459 -0.10585,2.864093 h -3.9579 c -0.39621,0 -0.55549,0.260097 -0.55549,0.648226 v 1.817657 c 0,4.278499 -2.41246,5.209001 -4.52649,5.445912 -2.01325,0.226828 -4.245247,-0.842795 -4.520466,-2.07473 -1.187576,-6.679861 -3.166533,-8.106363 -6.291732,-10.571237 3.878271,-2.46286 7.913811,-6.096156 7.913811,-10.95937 0,-5.251342 -3.600028,-8.559013 -6.053814,-10.181092 -3.442759,-2.269299 -7.254494,-2.723964 -8.282786,-2.723964 H 43.47024 C 49.020997,39.95378 56.543654,35.565397 65.052261,33.968521 l 4.824904,5.061813 c 1.090796,1.142211 2.897363,1.184553 4.038564,0.09275 l 5.39853,-5.163635 C 90.626472,36.06543 100.2037,43.10721 105.72321,52.768107 l -3.6958,8.347308 c -0.63815,1.444648 0.0131,3.134272 1.45373,3.774434 l 7.11536,3.160484 c 0.12299,1.263185 0.18751,2.539476 0.18751,3.832907 z M 69.879182,29.662802 c 1.250079,-1.197656 3.233069,-1.150274 4.429718,0.101821 1.194632,1.25512 1.149266,3.240127 -0.103838,4.436774 -1.250079,1.197657 -3.233069,1.151283 -4.429718,-0.102829 -1.193624,-1.253104 -1.148258,-3.238109 0.103838,-4.435766 z m 36.675728,29.514987 c 0.70066,-1.58377 2.55158,-2.298533 4.13334,-1.595868 1.58174,0.701658 2.2955,2.556615 1.59384,4.140385 -0.70065,1.584779 -2.55157,2.299542 -4.13433,1.596876 -1.57973,-0.701657 -2.2935,-2.555606 -1.59285,-4.141393 z"
       id="path3"
       style="fill:#000000;stroke-width:1.00813" /></g><g
     inkscape:groupmode="layer"
     id="layer2"
     inkscape:label="Docker"
     style="display:inline"
     sodipodi:insensitive="true"><g
       transform="matrix(0.41368241,0,0,0.41368241,19.100491,37.816144)"
       id="g1550"><path
         style="fill:#394d54"
         id="path14"
         d="m 147.4876,45.732 h 22.866 v 23.37473 h 11.56177 c 5.33905,0 10.83073,-0.95117 15.887,-2.66444 2.48448,-0.84244 5.27317,-2.01479 7.72392,-3.4892 -3.22785,-4.21436 -4.87579,-9.53574 -5.36101,-14.78106 -0.65874,-7.13426 0.78032,-16.42042 5.60897,-22.004216 l 2.40362,-2.780117 2.8642,2.302393 c 7.21138,5.79374 13.27612,13.88934 14.3451,23.11819 8.68312,-2.55411 18.87759,-1.95 26.53135,2.46735 l 3.14002,1.81182 -1.65276,3.2257 C 246.93289,68.946524 233.40077,72.859896 220.17071,72.167411 200.37356,121.4758 157.2729,144.82 105.01356,144.82 c -26.998899,0 -51.769845,-10.09272 -65.875552,-34.04693 -0.827018,-1.48798 -1.535233,-3.0439 -2.286326,-4.57212 C 32.083548,95.656747 30.499883,84.105687 31.574226,72.564267 l 0.32241,-3.457072 h 19.552937 v -23.37473 h 22.866 v -22.866 h 45.731997 v -22.866 h 27.43967 v 45.732" /><g
         id="g16"
         clip-path="url(#clipPath8-7)"><g
           id="g18"><g
             id="g20"
             transform="translate(0,-22.866)"><path
               style="fill:#00acd3"
               id="path22"
               d="m 123.85901,3.8110794 h 19.81751 V 23.62805 h -19.81751 z" /><path
               style="fill:#20c2ef"
               id="path24"
               d="m 123.85901,26.676485 h 19.81751 v 19.818043 h -19.81751 z" /><path
               style="stroke:#394d54;stroke-width:1.56"
               id="path26"
               d="M 126.29235,21.976904 V 5.4611548 M 129.2642,21.976904 V 5.4611548 m 3.00184,16.5157492 V 5.4611548 m 3.00344,16.5157492 V 5.4611548 M 138.2724,21.976904 V 5.4611548 m 2.97131,16.5157492 V 5.4611548" /><use
               height="100%"
               width="100%"
               y="0"
               x="0"
               xlink:href="#path26"
               id="use28"
               transform="translate(0,22.866)" /></g><use
             height="100%"
             width="100%"
             y="0"
             x="0"
             xlink:href="#g20"
             id="use30"
             transform="matrix(1,0,0,-1,22.866,4.572651)" /></g><use
           height="100%"
           width="100%"
           y="0"
           x="0"
           xlink:href="#g18"
           id="use32"
           transform="translate(-91.464,45.732)" /><use
           height="100%"
           width="100%"
           y="0"
           x="0"
           xlink:href="#g18"
           id="use34"
           transform="translate(-45.732,45.732)" /><use
           height="100%"
           width="100%"
           y="0"
           x="0"
           xlink:href="#g18"
           id="use36"
           transform="translate(0,45.732)" /></g><path
         style="fill:#17b5eb"
         id="path38"
         clip-path="url(#clipPath8-7)"
         d="m 221.57014,54.379649 c 1.53332,-11.915247 -7.38383,-21.274779 -12.91407,-25.71836 -6.37269,7.367765 -7.36295,26.677556 2.63498,34.807431 -5.57952,4.956117 -17.33731,9.448435 -29.37574,9.448435 L 34,72.917155 C 32.829255,85.484184 34,146 34,146 h 217 l -0.98657,-91.424 c -9.39863,-5.423665 -21.48419,-3.694326 -28.44332,-0.196552" /><path
         style="fill-opacity:0.17"
         id="path40"
         clip-path="url(#clipPath8-7)"
         d="m 34,89 v 57 H 251 V 89" /><path
         style="fill:#d4edf1"
         id="path42"
         clip-path="url(#clipPath8-7)"
         d="M 111.23736,140.88997 C 97.697741,134.4648 90.265707,125.73081 86.130611,116.19562 L 45,118 l 21,28 45.23736,-5.11003" /><path
         style="fill-opacity:0.085"
         id="path44"
         clip-path="url(#clipPath8-7)"
         d="m 222.5,53.9375 v 0.03125 c -20.86119,26.889144 -50.78312,50.37872 -82.90625,62.71875 -28.65478,11.00767 -53.638381,11.06039 -70.875,2.21875 -1.85607,-1.04832 -3.675701,-2.21152 -5.5,-3.3125 C 50.582097,106.76175 43.464274,92.152308 44.0625,72.90625 H 34 V 146 H 251 V 50 h -25 z" /><path
         style="fill:none;stroke:#394d54;stroke-width:3.4;stroke-linecap:round"
         id="path46"
         d="m 45.625,117.03125 c 14.165153,0.77531 29.28245,0.91433 42.46875,-3.21875" /><path
         style="fill:#d4edf1"
         id="path48"
         d="m 102.17024,106.95926 c 0,3.01898 -2.447529,5.46651 -5.466508,5.46651 -3.019514,0 -5.467581,-2.44753 -5.467581,-5.46651 0,-3.01897 2.448067,-5.46758 5.467581,-5.46758 3.018979,0 5.466508,2.44861 5.466508,5.46758 z" /><path
         style="fill:#394d54"
         id="path50"
         d="m 98.121372,103.30778 c -0.477188,0.27582 -0.800133,0.79264 -0.800133,1.3839 0,0.88261 0.715514,1.59706 1.598125,1.59706 0.604653,0 1.130046,-0.3358 1.401576,-0.83174 0.19173,0.4622 0.29831,0.96991 0.29831,1.50226 0,2.16208 -1.752907,3.91498 -3.915518,3.91498 -2.162075,0 -3.91605,-1.7529 -3.91605,-3.91498 0,-2.16314 1.753975,-3.91658 3.91605,-3.91658 0.500218,0 0.977406,0.0943 1.41764,0.2651 z" /><path
         style="fill:#394d54"
         id="path52"
         d="m 0,90.162343 h 254.32743 c -5.53774,-1.404786 -17.521,-3.302293 -15.54477,-10.559732 -10.06915,11.651749 -34.35274,8.174326 -40.4812,2.428786 -6.82471,9.89831 -46.55451,6.135967 -49.32553,-1.575096 -8.55565,10.04077 -35.06718,10.04077 -43.62336,0 -2.77209,7.711063 -42.501357,11.473406 -49.326595,1.575096 C 49.897506,87.776937 25.616067,91.25436 15.545841,79.602611 17.522075,86.86005 5.5388117,88.757557 0,90.162343" /></g></g></svg>
